<?xml version="1.0" encoding="UTF-8" standalone="no"?>
<!-- Created with Inkscape (http://www.inkscape.org/) -->

<svg
   width="406mm"
   height="134mm"
   viewBox="0 0 406 134"
   version="1.1"
   id="svg1"
   inkscape:version="1.4.2 (f4327f4, 2025-05-13)"
   sodipodi:docname="logo.svg"
   inkscape:export-filename="logo.png"
   inkscape:export-xdpi="96"
   inkscape:export-ydpi="96"
   xmlns:inkscape="http://www.inkscape.org/namespaces/inkscape"
   xmlns:sodipodi="http://sodipodi.sourceforge.net/DTD/sodipodi-0.dtd"
   xmlns="http://www.w3.org/2000/svg"
   xmlns:svg="http://www.w3.org/2000/svg">
  <sodipodi:namedview
     id="namedview1"
     pagecolor="#000000"
     bordercolor="#000000"
     borderopacity="0.25"
     inkscape:showpageshadow="2"
     inkscape:pageopacity="0.0"
     inkscape:pagecheckerboard="0"
     inkscape:deskcolor="#d1d1d1"
     inkscape:document-units="mm"
     showguides="true"
     inkscape:zoom="0.45254834"
     inkscape:cx="762.3495"
     inkscape:cy="336.98058"
     inkscape:window-width="1920"
     inkscape:window-height="1001"
     inkscape:window-x="-9"
     inkscape:window-y="-9"
     inkscape:window-maximized="1"
     inkscape:current-layer="svg1"
     inkscape:export-bgcolor="#00000000">
    <sodipodi:guide
       position="251.76581,54.341153"
       orientation="0,-1"
       id="guide3"
       inkscape:locked="false" />
    <sodipodi:guide
       position="255.82183,35.157256"
       orientation="0,-1"
       id="guide4"
       inkscape:locked="false" />
    <sodipodi:guide
       position="228.25481,41.447509"
       orientation="1,0"
       id="guide5"
       inkscape:locked="false" />
    <sodipodi:guide
       position="221.56271,38.269408"
       orientation="0,-1"
       id="guide7"
       inkscape:locked="false" />
    <sodipodi:guide
       position="279.50025,84.012246"
       orientation="1,0"
       id="guide21"
       inkscape:locked="false" />
    <sodipodi:guide
       position="185.26164,99.870934"
       orientation="0,-1"
       id="guide22"
       inkscape:locked="false" />
    <sodipodi:guide
       position="183.87309,50.906321"
       orientation="0,-1"
       id="guide23"
       inkscape:locked="false" />
    <sodipodi:guide
       position="188.05054,88.498901"
       orientation="0,-1"
       id="guide24"
       inkscape:locked="false" />
    <sodipodi:guide
       position="184.58822,70.024576"
       orientation="1,0"
       id="guide25"
       inkscape:locked="false" />
  </sodipodi:namedview>
  <defs
     id="defs1">
    <clipPath
       clipPathUnits="userSpaceOnUse"
       id="clipPath11">
      <g
         inkscape:label="Clip"
         id="use11">
        <path
           style="fill:#000000;stroke-width:0.352777"
           d="m 217.48066,97.55297 c -0.87057,-0.386927 -2.15847,-1.327357 -2.86198,-2.089829 l -1.27911,-1.386325 -0.60749,-1.216137 -0.52763,-3.340253 0.67006,-4.413177 0.82519,-1.259361 c 1.13676,-1.734923 3.94485,-3.376409 6.4656,-3.779487 l 2.10828,-0.337129 2.19649,0.591453 c 1.20805,0.32529 2.56329,0.958277 3.01163,1.406622 l 0.77966,0.802262 -0.005,3.424785 c -3.04174,-2.516279 -2.98222,-2.954959 -6.64892,-2.957777 -2.98843,-0.529296 -4.55013,1.712191 -6.50092,3.552036 v 2.403404 2.403417 c 1.78946,2.263907 4.41838,4.301827 6.26573,4.362076 2.27738,0.04338 4.70635,-1.521316 6.87804,-2.790003 -0.006,1.26131 0.014,1.000011 0.0123,3.469613 l -2.07767,0.974196 -1.84513,0.922513 -2.63809,-0.01987 -2.6381,-0.01981 z m 11.87147,0.08893 c 0,-0.360736 1.59739,-4.397037 3.54977,-8.969556 l 3.54976,-8.313658 h 1.67953 1.67953 l 3.54396,8.413489 c 3.97177,9.42906 3.93552,9.261799 2.007,9.261799 h -1.40191 l -0.81761,-2.242389 -0.81759,-2.242382 h -4.13068 -4.13068 l -1.01774,2.374291 -1.01775,2.374294 h -1.33779 -1.3378 z m 19.89596,0.326394 -0.37401,-0.373997 v -8.617801 -8.61781 h 6.0916 6.09164 l 1.29506,1.295071 1.29508,1.295063 v 2.06332 2.063308 l -1.09353,1.3902 c -0.60145,0.764619 -1.41844,1.390215 -1.81554,1.390215 -0.3971,0 -0.86356,0.22904 -1.03657,0.508971 l -0.31455,0.508977 2.3939,3.289933 c 2.82389,3.880845 2.87526,4.134044 0.83899,4.134044 h -1.55495 l -2.76288,-3.957154 -2.76288,-3.957161 h -1.72671 -1.7267 l -0.15503,3.825254 -0.15502,3.825247 -1.07696,0.154169 c -0.59231,0.08479 -1.24525,-0.01399 -1.45094,-0.219845 z m 10.70603,-11.278156 c 1.27228,-1.272279 1.31222,-1.778144 0.22612,-2.864233 l -0.82912,-0.829107 h -3.65566 -3.65565 v 2.374281 2.374296 h 3.42953 3.42954 z m 8.2263,10.667696 -1.89487,-0.755773 v -1.582886 -1.582872 l 0.92335,0.391324 c 0.50784,0.215233 1.87306,0.7359 3.03382,1.157038 l 2.11048,0.765703 1.84494,-0.297102 1.84495,-0.29711 0.64081,-0.876367 0.64081,-0.876359 -0.49353,-0.922179 -0.49354,-0.922179 -3.81404,-0.934669 -3.81404,-0.934689 -1.212,-1.211988 -1.21201,-1.21201 v -2.087558 -2.087559 l 1.54517,-1.300164 1.54515,-1.300163 1.92862,-0.361808 1.92861,-0.36181 1.67053,0.329008 c 0.9188,0.180957 2.32346,0.58039 3.12148,0.887648 l 1.45096,0.558639 v 1.518857 1.518851 h -0.46732 c -0.25699,0 -1.14736,-0.354689 -1.97855,-0.788192 l -1.51129,-0.788179 -2.46848,-0.0034 -2.46852,-0.0034 -0.82912,0.829107 c -1.65731,1.657313 -0.33666,2.826702 4.64073,4.109182 l 3.09557,0.797602 1.25729,1.181183 1.25732,1.181181 v 1.92653 1.926544 l -1.18715,1.081279 c -0.65292,0.594697 -1.72717,1.359848 -2.38724,1.700327 l -1.20008,0.619042 -2.57698,-0.117585 c -1.41733,-0.0647 -3.42967,-0.457682 -4.47183,-0.873357 z M 147.39508,82.645038 c -0.19346,-0.193454 -0.35177,-1.471629 -0.35177,-2.840369 v -2.488631 l -1.07918,-0.28221 -1.07916,-0.282207 1.42326,-2.549336 1.42324,-2.549338 h 5.06404 5.06403 l 2.96523,-1.390371 c 3.7441,-1.75557 6.72539,-4.440157 9.432,-8.493345 l 2.12204,-3.177761 0.85367,-2.936497 0.85365,-2.936488 -0.60856,-2.636398 -0.60856,-2.636401 -1.38523,-1.816143 -1.38526,-1.816162 -9.02139,0.380486 -9.02142,0.380486 -0.64273,0.531359 c -0.35352,0.292252 -1.22715,1.576989 -1.94143,2.854988 l -1.29871,2.323613 4.05191,0.06985 c 2.22856,0.03837 7.73208,0.21647 12.23005,0.395709 l 8.17811,0.325881 -0.16808,2.110487 -0.16809,2.110482 -1.47251,3.165725 c -0.80987,1.741143 -2.052,3.77968 -2.76025,4.530076 l -1.28776,1.364357 -7.05933,0.357286 c -8.03113,0.406463 -7.77975,0.324639 -6.58739,2.144428 l 0.89428,1.36483 1.91791,0.03712 c 1.6435,0.03179 4.53871,0.810739 3.76456,1.012861 -0.14514,0.03785 -1.92583,0.145195 -3.95716,0.238476 -2.03133,0.09328 -5.53468,0.344416 -7.78523,0.558082 l -4.09189,0.388487 -0.78239,-0.649335 -0.78241,-0.649329 0.32511,-7.986748 0.32509,-7.986763 0.46013,-0.501244 c 0.80491,-0.876835 0.49999,-1.345429 -0.87548,-1.345429 h -1.33561 l -0.31731,-0.826897 -0.31731,-0.826896 0.46577,-0.462889 c 0.25618,-0.254581 1.25784,-0.601739 2.22589,-0.771469 l 1.7601,-0.3086 0.28001,1.070751 c 0.43986,1.682076 0.99594,1.300934 3.06053,-2.097754 l 1.92477,-3.168509 1.1316,-0.605615 1.1316,-0.605618 7.57722,-0.257239 7.57723,-0.257233 -0.64343,-0.397657 -0.6434,-0.397654 1.77315,-2.469099 1.77318,-2.469098 1.17852,0.225289 1.17851,0.225286 2.26544,-1.503035 c 2.79443,-1.853999 2.97992,-1.842396 4.75388,0.297404 l 1.43322,1.728778 -1.63767,2.226878 -1.63766,2.226883 0.62134,2.073903 0.62135,2.07389 h 2.61693 2.61692 v 2.811722 2.811722 l -2.55984,1.198958 -2.55984,1.198971 -0.6199,2.685488 -0.61988,2.685487 1.46497,1.169363 1.46496,1.169355 -1.44522,2.950684 -1.44523,2.950679 h -2.80415 -2.80413 l -1.65688,1.714773 -1.65688,1.714759 -0.16137,2.846826 -0.16137,2.846821 -2.47351,1.374143 -2.47352,1.37415 -1.74743,-1.633595 -1.74745,-1.6336 -1.87151,0.473545 -1.87153,0.47355 -1.71951,2.874816 -1.7195,2.874817 h -2.52059 c -1.38632,0 -2.67886,-0.158291 -2.87231,-0.351753 z m 42.62078,-37.082485 c 0,0 4.02547,0.0026 4.45418,6.59e-4 0,0 -2.27878,10.231184 -3.18612,13.717059 l 8.46705,-0.137471 8.59625,-0.145176 c 0,0 1.57468,-7.792934 3.08575,-13.432304 1.80696,0 3.49627,-0.0082 5.25687,-0.0082 -2.62308,10.929038 -5.20213,21.721455 -7.82463,32.660607 -1.2875,-0.01138 -5.12033,0.0021 -5.12033,0.0021 0.59899,-2.422227 1.21641,-4.884224 1.82718,-7.303494 0.88571,-3.508238 1.62,-6.463109 1.62,-6.632371 0,-0.16926 -3.84355,-0.242498 -8.54122,-0.162768 l -8.54122,0.144971 c 0.0388,-6.59e-4 -3.35059,13.951086 -3.35059,13.951086 -0.20474,0.0067 -3.13365,-0.0076 -4.53878,0.0034 5.18441,-21.512887 5.19986,-21.526675 7.79561,-32.657807 z m 32.67766,-0.01306 c 7.85136,0.03244 15.70276,0.04179 23.55416,0.05218 -0.35577,1.500826 -1.1968,4.996841 -1.1968,4.996841 -6.20996,0.01955 -12.42286,-0.03119 -18.6239,-0.03119 -0.62326,2.569982 -1.84354,7.650501 -1.84354,7.650501 h 8.42086 10.22046 c -0.35807,1.460602 -1.20905,5.057382 -1.20905,5.057382 -6.26847,0 -12.32832,-0.04501 -18.62825,-0.04501 -0.81714,3.37745 -2.44369,10.277029 -2.47727,10.277029 l 18.63997,0.0026 c -0.36259,1.558556 -1.1288,4.713067 -1.1288,4.713067 l -11.44352,0.01343 -12.13378,-0.03087 c 3.94145,-16.372524 3.9372,-16.362792 7.84946,-32.656243 z m 25.57473,0.06548 4.71884,-0.05153 c 2.06372,9.385315 0.0608,0.259017 5.04039,22.868234 1.05261,-1.42308 9.84432,-13.553457 16.59412,-22.87215 1.68501,0.01362 3.27136,0.02921 4.88725,0.0047 0,0 -3.04775,4.197569 -6.96582,9.59429 -6.48735,8.935623 -15.36069,21.158732 -16.73612,23.058748 l -0.36915,-0.0026 c -1.07168,-4.791915 -7.17041,-32.583966 -7.16951,-32.599557 z"
           id="path19"
           sodipodi:nodetypes="csccccsscssccccccccccccccsscccsscccccccccsscccccccccssscsscccccccsssccccccccscsccsscccccccccccccccccsscccsscccsscccccsscsccsccccccccsscccccccccsscsscccsscsscsssscccccsscccsscsscccccccccccsscccccccccccccccccccccccccccccccssscccccccccsscsscccccccccccccccscccccccccscccc"
           clip-path="none" />
      </g>
    </clipPath>
  </defs>
  <g
     inkscape:label="Capa 1"
     inkscape:groupmode="layer"
     id="layer1">
    <path
       d="m 232.56566,88.219064 c 1.23453,0.332597 2.46906,0.665192 3.70358,0.997788 2.03715,0.548543 4.32265,1.61598 5.0787,2.372033 0.43831,0.450821 0.87667,0.901642 1.31499,1.35246 -0.003,1.925283 -0.004,3.850562 -0.009,5.775845 -5.12936,-4.243256 -5.04826,-4.495259 -11.21183,-4.988071 -5.10161,-0.4079 -7.67294,2.887646 -10.96258,5.990216 0,1.351005 0,2.702015 0,4.053025 0,1.35101 0,2.70201 0,4.05302 3.01761,3.81768 7.45,7.25415 10.56522,7.35575 3.84038,0.0732 7.93657,-2.56544 11.59873,-4.70485 -0.0109,2.12697 0.0238,1.68624 0.0209,5.85078 -1.16772,0.54755 -2.33543,1.0951 -3.50315,1.64263 -1.03727,0.51851 -1.06155,0.54685 -3.11188,1.55552 -1.4829,-0.0109 -2.96578,-0.0221 -4.44866,-0.0331 -1.48288,-0.0118 -2.96575,-0.0226 -4.44865,-0.0339 -0.88974,-0.39505 -1.77944,-0.79008 -2.66919,-1.18513 -1.46806,-0.65248 -3.64051,-2.23917 -4.82686,-3.52494 -0.71893,-0.77907 -1.43786,-1.55812 -2.15679,-2.33717 -0.3413,-0.68379 -0.68262,-1.36757 -1.02394,-2.05135 -0.29656,-1.87735 -0.59313,-3.7547 -0.88972,-5.63206 0.37646,-2.48067 0.75292,-4.961344 1.12936,-7.442017 0.46391,-0.707894 0.9278,-1.415785 1.3917,-2.123678 1.91694,-2.925638 6.65254,-5.693924 10.90332,-6.373644 1.18505,-0.189683 2.37011,-0.379362 3.55517,-0.569047 z"
       style="fill:#ffffff;stroke-width:0.352777"
       id="path15"
       sodipodi:nodetypes="cccccsccccccccccccccccccc" />
    <path
       d="m 233.0654,28.609851 c -6.74301,28.08279 -6.73553,28.067084 -13.52906,56.287004 l 20.91401,0.05345 19.724,-0.02316 c 0,0 1.32125,-5.437828 1.94622,-8.124219 l -32.12901,-0.0045 c 0.058,0 2.86164,-11.892154 4.27009,-17.713664 10.85882,0 21.30394,0.07749 32.10852,0.07749 0,0 1.46709,-6.199883 2.08428,-8.717436 h -17.61659 -14.5151 c 0,0 2.10381,-8.756433 3.17809,-13.186156 10.68835,0 21.39676,0.08715 32.1005,0.05345 0,0 1.44967,-6.025447 2.0629,-8.61233 -13.53299,-0.01791 -27.06593,-0.03404 -40.59885,-0.08995 z"
       style="fill:#e84d29;fill-opacity:1;stroke-width:0.352777"
       id="path14" />
    <path
       d="m 322.57078,28.626776 c 2.90434,0.02349 5.63917,0.05025 8.42439,0.0082 0,0 -5.25351,7.235023 -12.00687,16.537029 -11.18184,15.4018 -26.47598,36.470578 -28.84672,39.745522 l -0.63684,-0.0045 C 287.65755,76.653438 277.1454,28.749934 277.14695,28.723062 v -8.92e-4 l 8.134,-0.08819 c 3.55712,16.176907 0.10492,0.445799 8.68805,39.415956 1.81432,-2.452878 16.96755,-23.361006 28.60178,-39.423081 z"
       style="fill:#e84d29;fill-opacity:1;stroke-width:0.352777"
       id="path13" />
    <path
       d="m 222.71708,28.622322 c -3.03464,0 -5.94581,0.01431 -9.06036,0.01431 -2.60454,9.720244 -5.31937,23.152375 -5.31937,23.152375 l -14.81616,0.250292 -14.59437,0.236931 c 1.56393,-6.008393 5.49125,-23.643162 5.49125,-23.643162 -0.73894,0.0033 -7.67707,-8.88e-4 -7.67707,-8.88e-4 -4.47415,19.186067 -4.5004,19.210088 -13.43645,56.290567 2.42194,-0.01896 7.47026,0.0062 7.82316,-0.0053 0,0 5.84228,-24.047791 5.7754,-24.046656 l 14.72175,-0.25029 c 8.09709,-0.137424 14.72175,-0.01119 14.72175,0.280575 0,0.291747 -1.26574,5.384508 -2.79239,11.431448 -1.05275,4.169951 -2.11713,8.414329 -3.14958,12.589377 0,0 6.60693,-0.02319 8.82612,-0.0037 4.52025,-18.855162 8.96508,-37.458182 13.48632,-56.295912 z"
       style="fill:#e84d29;fill-opacity:1;stroke-width:0.352777"
       id="path12" />
    <g
       transform="matrix(1.327879,0,0,-1.3268293,266.10544,107.1981)"
       id="g108"
       style="fill:#ffffff;stroke-width:0.265776">
      <path
         id="path110"
         style="fill:#ffffff;fill-opacity:1;fill-rule:nonzero;stroke:none;stroke-width:0.265776"
         d="M 0,0 -4.056,11.534 -8.127,0 Z M 6.495,-9.23 H 3.216 L 0.947,-2.683 H -9.06 l -2.268,-6.547 h -3.123 l 8.422,23.494 h 4.101 z" />
    </g>
    <g
       transform="matrix(1.327879,0,0,-1.3268293,266.10544,107.1981)"
       id="g112"
       style="fill:#ffffff;stroke-width:0.265776">
      <path
         id="path114"
         style="fill:#ffffff;stroke:#e84d29;stroke-width:0.0664437;stroke-linecap:butt;stroke-linejoin:miter;stroke-miterlimit:10;stroke-dasharray:none;stroke-opacity:1"
         d="M 0,0 -4.056,11.534 -8.127,0 Z M 6.495,-9.23 H 3.216 L 0.947,-2.683 H -9.06 l -2.268,-6.547 h -3.123 l 8.422,23.494 h 4.101 z" />
    </g>
    <g
       transform="matrix(1.3235458,0,0,-1.3214771,294.08692,96.966431)"
       id="g140"
       style="fill:#ffffff;stroke-width:0.266749">
      <path
         id="path142"
         style="fill:#ffffff;fill-opacity:1;fill-rule:nonzero;stroke:none;stroke-width:0.266749"
         d="m 0,0 c 0,0.673 -0.116,1.271 -0.35,1.791 -0.232,0.52 -0.619,0.96 -1.157,1.317 -0.445,0.305 -0.973,0.518 -1.585,0.639 -0.611,0.121 -1.331,0.182 -2.16,0.182 h -3.62 v -8.868 h 3.107 c 0.974,0 1.824,0.087 2.549,0.261 0.725,0.173 1.341,0.496 1.849,0.97 0.467,0.442 0.81,0.949 1.033,1.522 C -0.111,-1.612 0,-0.884 0,0 M 7.194,-16.883 H 3.201 l -7.738,9.341 h -4.335 v -9.341 h -3.077 V 6.611 h 6.479 c 1.4,0 2.565,-0.093 3.497,-0.276 C -1.041,6.151 -0.201,5.822 0.544,5.349 1.384,4.812 2.038,4.137 2.51,3.321 2.981,2.506 3.217,1.473 3.217,0.221 c 0,-1.694 -0.42,-3.111 -1.259,-4.252 -0.839,-1.142 -1.994,-2.001 -3.465,-2.58 z" />
    </g>
    <path
       id="path146"
       style="fill:#ffffff;stroke:#e84d29;stroke-width:0.0881945;stroke-linecap:butt;stroke-linejoin:miter;stroke-miterlimit:10;stroke-dasharray:none;stroke-opacity:1"
       d="m 294.08691,96.966427 c 0,-0.889358 -0.1534,-1.679596 -0.46324,-2.366747 -0.30725,-0.687187 -0.81928,-1.26863 -1.53132,-1.74039 -0.58899,-0.403062 -1.28785,-0.68453 -2.09784,-0.844447 -0.80866,-0.159883 -1.76161,-0.240487 -2.85889,-0.240487 h -4.79119 v 11.718854 h 4.11223 c 1.28914,0 2.41418,-0.11503 3.37372,-0.34501 0.95958,-0.2285 1.77488,-0.65542 2.44726,-1.28181 0.61807,-0.5841 1.07209,-1.2541 1.36719,-2.011297 0.29527,-0.758511 0.44208,-1.720538 0.44208,-2.88874 z m 9.5216,22.310513 h -5.28493 L 288.08201,106.933 h -5.73758 v 12.34394 h -4.07258 v -31.0468 h 8.57527 c 1.85299,0 3.39488,0.122878 4.62843,0.364742 1.23357,0.243145 2.3453,0.677915 3.33138,1.302977 1.11178,0.709631 1.97736,1.601628 2.60207,2.679962 0.62339,1.076989 0.93577,2.442077 0.93577,4.096572 0,2.238562 -0.55591,4.111107 -1.66635,5.618917 -1.11046,1.50912 -2.63915,2.64428 -4.58607,3.40939 z" />
    <g
       transform="matrix(1.3682478,0,0,-1.3655655,332.30024,110.74525)"
       id="g116"
       style="fill:#ffffff;stroke-width:0.258085">
      <path
         id="path118"
         style="fill:#ffffff;fill-opacity:1;fill-rule:nonzero;stroke:none;stroke-width:0.258085"
         d="m 0,0 c 0,-0.915 -0.21,-1.82 -0.63,-2.714 -0.419,-0.894 -1.007,-1.651 -1.763,-2.272 -0.829,-0.673 -1.794,-1.2 -2.898,-1.578 -1.104,-0.378 -2.432,-0.568 -3.986,-0.568 -1.668,0 -3.167,0.157 -4.498,0.473 -1.331,0.316 -2.686,0.784 -4.064,1.404 v 3.913 h 0.218 c 1.171,-0.988 2.522,-1.751 4.056,-2.287 1.533,-0.537 2.972,-0.805 4.319,-0.805 1.906,0 3.391,0.363 4.452,1.088 1.062,0.727 1.593,1.695 1.593,2.904 0,1.042 -0.251,1.809 -0.754,2.303 -0.502,0.494 -1.267,0.879 -2.292,1.153 -0.776,0.21 -1.618,0.383 -2.524,0.52 -0.908,0.137 -1.869,0.311 -2.883,0.521 -2.051,0.442 -3.572,1.196 -4.561,2.264 -0.989,1.068 -1.484,2.458 -1.484,4.173 0,1.967 0.818,3.579 2.455,4.836 1.637,1.257 3.714,1.886 6.231,1.886 1.626,0 3.118,-0.157 4.476,-0.474 1.356,-0.315 2.558,-0.704 3.604,-1.167 V 11.881 H -1.15 c -0.88,0.758 -2.039,1.386 -3.473,1.886 -1.435,0.499 -2.903,0.749 -4.405,0.749 -1.648,0 -2.971,-0.347 -3.97,-1.041 -1,-0.695 -1.5,-1.589 -1.5,-2.683 0,-0.979 0.249,-1.746 0.746,-2.304 0.497,-0.557 1.372,-0.983 2.626,-1.277 C -10.463,7.063 -9.52,6.885 -8.298,6.674 -7.076,6.464 -6.04,6.248 -5.19,6.027 -3.471,5.564 -2.176,4.864 -1.306,3.929 -0.435,2.992 0,1.683 0,0" />
    </g>
    <g
       transform="matrix(0.90236399,0,0,-0.90236399,219.77762,108.26746)"
       id="g84"
       style="fill:#ffffff;stroke-width:0.390949">
      <path
         id="path86"
         style="fill:#ffffff;fill-opacity:1;fill-rule:evenodd;stroke:none;stroke-width:0.390949"
         d="M 0,0 V 2.953 C -25.05,2.51 -49.961,2.071 -74.876,1.63 c -0.298331,-0.1401226 -0.08293,-0.3652597 0,-0.391 C -49.985,0.829 -25.098,0.414 0,0"
         sodipodi:nodetypes="ccccc" />
    </g>
    <g
       transform="matrix(0.90236399,0,0,-0.90236399,219.66037,104.41835)"
       id="g88"
       style="fill:#ffffff;stroke-width:0.390949">
      <path
         id="path90"
         style="fill:#ffffff;fill-opacity:1;fill-rule:evenodd;stroke:none;stroke-width:0.390949"
         d="M 0,0 C 0.495,1.631 0.26,2.355 -1.408,2.326 -20.105,1.993 -38.801,1.702 -57.509,1.079 -38.387,0.723 -19.26,0.355 0,0" />
    </g>
    <g
       transform="matrix(0.90236399,0,0,-0.90236399,168.11419,100.31719)"
       id="g92"
       style="fill:#ffffff;stroke-width:0.390949">
      <path
         id="path94"
         style="fill:#ffffff;fill-opacity:1;fill-rule:evenodd;stroke:none;stroke-width:0.390949"
         d="M 0,0 C 18.993,-0.31 37.979,-0.622 56.935,-0.927 57.456,1.245 57.456,1.318 55.628,1.292 37.089,0.961 18.544,0.604 0,0.255 -0.07147078,0.19522498 -0.10834283,0.12323865 0,0 Z"
         sodipodi:nodetypes="ccccc" />
    </g>
    <g
       transform="matrix(0.90236399,0,0,-0.86988747,219.75864,109.17245)"
       id="g96"
       style="fill:#ffffff;stroke-width:0.398181">
      <path
         id="path98"
         style="fill:#ffffff;fill-opacity:1;fill-rule:evenodd;stroke:none;stroke-width:0.398181"
         d="m 0,0 h -30.906 c -0.527093,-0.16576079 -1.485052,-0.28227974 0,-0.678 H 0.033 C 0.021,-0.452 0.016,-0.227 0,0"
         sodipodi:nodetypes="ccccc" />
    </g>
    <g
       transform="matrix(1.0662878,0,0,-1.0662878,99.102103,65.713321)"
       id="g76"
       style="stroke-width:0.330847">
      <path
         id="path78"
         style="fill:#e84d29;fill-opacity:1;fill-rule:evenodd;stroke:none;stroke-width:0.330847"
         d="m 0,0 c 3.547,-0.961 6.325,-1.71 9.098,-2.466 0.194,0.365 0.389,0.724 0.587,1.084 C 8.277,0.31 6.873,2.006 5.35,3.83 3.69,2.636 2.304,1.641 0,0 m 2.154,19.247 c 1.23,-4.833 2.766,-6.089 8.394,-7.348 2.129,-0.473 3.755,0.031 4.998,2.17 -4.393,1.699 -8.7,3.364 -13.392,5.178 m 21.22,-23.144 c -3.384,0 -6.774,0.169 -10.145,-0.035 -4.436,-0.277 -8.85,-0.829 -13.275,-1.294 -2.751,-0.28 -3.858,0.77 -3.707,3.666 0.383,7.568 0.487,15.144 0.859,22.718 0.051,1.101 0.975,2.161 1.782,3.834 -0.578,0.192 -1.575,0.733 -2.603,0.817 -1.555,0.126 -3.221,0.22 -3.055,2.154 0.054,0.623 1.786,1.311 2.853,1.602 1.96,0.544 3.606,0.238 4.185,-2.205 0.155,-0.633 0.976,-1.109 1.704,-1.89 1.978,3.188 3.93,6.083 5.616,9.129 1.549,2.791 3.917,3.954 6.911,4.064 7.503,0.272 15.011,0.507 22.518,0.653 0.98,0.016 1.967,-0.592 2.955,-0.903 -0.06,-0.307 -0.122,-0.608 -0.187,-0.916 -3.743,0 -7.496,0.073 -11.238,-0.016 C 23.471,37.36 18.409,37.082 13.334,36.945 10.862,36.88 9.098,35.938 7.998,33.629 6.925,31.365 5.649,29.198 4.107,26.342 17.836,25.935 31.001,25.549 44.41,25.146 43.976,17.129 40.814,10.556 35.522,4.931 35.047,4.426 33.94,4.371 33.123,4.334 26.4,4.048 19.678,3.818 12.964,3.552 12.299,3.525 11.649,3.375 10.999,3.289 c 0.253,-2.483 2.693,-5.978 4.522,-6.206 2.582,-0.326 5.198,-0.373 7.8,-0.537 0.02,-0.144 0.033,-0.29 0.053,-0.443" />
    </g>
    <g
       transform="matrix(1.0854731,0,0,-1.0854731,137.79178,20.243228)"
       id="g80"
       style="stroke-width:0.325">
      <path
         id="path82"
         style="fill:#e84d29;fill-opacity:1;fill-rule:nonzero;stroke:none;stroke-width:0.325"
         d="m 0,0 5.491,7.933 2.899,-1.649 8.536,5.461 4.879,-5.461 -5.79,-7.814 c 0,0 2.74,-5.031 2.74,-7.162 l 8.393,0.914 v -8.388 l -8.393,-4.273 c 0,0 -0.913,-7.627 -2.663,-8.62 l 5.336,-4.725 -4.197,-8.16 H 8.18 l -5.896,-6.251 0.149,-8.699 -8.003,-4.804 -5.419,5.34 -6.93,-1.681 -5.42,-9.142 h -8.537 l 0.456,8.538 -3.735,1.376 4.496,7.85 c 0,0 21.2,-6.979 35.691,14.737 0,0 17.842,20.95 -5.032,34.68" />
    </g>
  </g>
</svg>
